<svg xmlns="http://www.w3.org/2000/svg" id="SvgjsSvg1021" width="240" height="260" class="user-dashboard-module-svg" version="1.1" viewBox="0 0 240 260"><defs id="SvgjsDefs1022"><clipPath id="SvgjsClipPath1028" shape-rendering="geometricPrecision"><polygon id="SvgjsPolygon1025" fill="#fff" points="0 0 0 -240 62.117 -231.822"/></clipPath><clipPath id="SvgjsClipPath1033" shape-rendering="geometricPrecision"><polygon id="SvgjsPolygon1030" fill="#fff" points="0 0 62.117 -231.822 120 -207.846"/></clipPath><clipPath id="SvgjsClipPath1038" shape-rendering="geometricPrecision"><polygon id="SvgjsPolygon1035" fill="#fff" points="0 0 120 -207.846 169.706 -169.706"/></clipPath><clipPath id="SvgjsClipPath1043" shape-rendering="geometricPrecision"><polygon id="SvgjsPolygon1040" fill="#fff" points="0 0 169.706 -169.706 207.846 -120"/></clipPath><clipPath id="SvgjsClipPath1048" shape-rendering="geometricPrecision"><polygon id="SvgjsPolygon1045" fill="#fff" points="0 0 207.846 -120 231.822 -62.117"/></clipPath><clipPath id="SvgjsClipPath1053" shape-rendering="geometricPrecision"><polygon id="SvgjsPolygon1050" fill="#fff" points="0 0 231.822 -62.117 240 0"/></clipPath><clipPath id="SvgjsClipPath1058" shape-rendering="geometricPrecision"><polygon id="SvgjsPolygon1055" fill="#fff" points="0 0 240 0 231.822 62.117"/></clipPath><clipPath id="SvgjsClipPath1063" shape-rendering="geometricPrecision"><polygon id="SvgjsPolygon1060" fill="#fff" points="0 0 231.822 62.117 207.846 120"/></clipPath><clipPath id="SvgjsClipPath1068" shape-rendering="geometricPrecision"><polygon id="SvgjsPolygon1065" fill="#fff" points="0 0 207.846 120 169.706 169.706"/></clipPath><clipPath id="SvgjsClipPath1073" shape-rendering="geometricPrecision"><polygon id="SvgjsPolygon1070" fill="#fff" points="0 0 169.706 169.706 120 207.846"/></clipPath><clipPath id="SvgjsClipPath1078" shape-rendering="geometricPrecision"><polygon id="SvgjsPolygon1075" fill="#fff" points="0 0 120 207.846 62.117 231.822"/></clipPath><clipPath id="SvgjsClipPath1083" shape-rendering="geometricPrecision"><polygon id="SvgjsPolygon1080" fill="#fff" points="0 0 62.117 231.822 0 240"/></clipPath><clipPath id="SvgjsClipPath1088" shape-rendering="geometricPrecision"><polygon id="SvgjsPolygon1085" fill="#fff" points="0 0 0 240 -62.117 231.822"/></clipPath><clipPath id="SvgjsClipPath1093" shape-rendering="geometricPrecision"><polygon id="SvgjsPolygon1090" fill="#fff" points="0 0 -62.117 231.822 -120 207.846"/></clipPath><clipPath id="SvgjsClipPath1098" shape-rendering="geometricPrecision"><polygon id="SvgjsPolygon1095" fill="#fff" points="0 0 -120 207.846 -169.706 169.706"/></clipPath><clipPath id="SvgjsClipPath1103" shape-rendering="geometricPrecision"><polygon id="SvgjsPolygon1100" fill="#fff" points="0 0 -169.706 169.706 -207.846 120"/></clipPath><clipPath id="SvgjsClipPath1108" shape-rendering="geometricPrecision"><polygon id="SvgjsPolygon1105" fill="#fff" points="0 0 -207.846 120 -231.822 62.117"/></clipPath><clipPath id="SvgjsClipPath1113" shape-rendering="geometricPrecision"><polygon id="SvgjsPolygon1110" fill="#fff" points="0 0 -231.822 62.117 -240 0"/></clipPath><clipPath id="SvgjsClipPath1118" shape-rendering="geometricPrecision"><polygon id="SvgjsPolygon1115" fill="#fff" points="0 0 -240 0 -231.822 -62.117"/></clipPath><clipPath id="SvgjsClipPath1123" shape-rendering="geometricPrecision"><polygon id="SvgjsPolygon1120" fill="#fff" points="0 0 -231.822 -62.117 -207.846 -120"/></clipPath><clipPath id="SvgjsClipPath1128" shape-rendering="geometricPrecision"><polygon id="SvgjsPolygon1125" fill="#fff" points="0 0 -207.846 -120 -169.706 -169.706"/></clipPath><clipPath id="SvgjsClipPath1133" shape-rendering="geometricPrecision"><polygon id="SvgjsPolygon1130" fill="#fff" points="0 0 -169.706 -169.706 -120 -207.846"/></clipPath><clipPath id="SvgjsClipPath1138" shape-rendering="geometricPrecision"><polygon id="SvgjsPolygon1135" fill="#fff" points="0 0 -120 -207.846 -62.117 -231.822"/></clipPath><clipPath id="SvgjsClipPath1143" shape-rendering="geometricPrecision"><polygon id="SvgjsPolygon1140" fill="#fff" points="0 0 -62.117 -231.822 0 -240"/></clipPath><clipPath id="SvgjsClipPath1173" shape-rendering="geometricPrecision"><path id="SvgjsPath1172" fill="#fff" d="M0 0L-4.408728476930471e-14 -240A240 240 0 0 1 7.347880794884119e-14 240A240 240 0 0 1 -1.0287033112837766e-13 -240Z"/></clipPath></defs><g id="SvgjsG1023" transform="matrix(1,0,0,1,120,120)"><g id="0" clip-path="url(&quot;#SvgjsClipPath1028&quot;)" data-data="{&quot;scrobbleCount&quot;:3,&quot;listeningClockTooltip&quot;:&quot;3 scrobbles&quot;}"><circle id="SvgjsCircle1026" cx="0" cy="0" r="120" fill="#06f" fill-opacity=".2"/><circle id="SvgjsCircle1027" cx="0" cy="0" r="0" fill="#06f" class="segment-value"/></g><g id="1" clip-path="url(&quot;#SvgjsClipPath1033&quot;)" data-data="{&quot;scrobbleCount&quot;:15,&quot;listeningClockTooltip&quot;:&quot;15 scrobbles&quot;}"><circle id="SvgjsCircle1031" cx="0" cy="0" r="120" fill="#06f" fill-opacity=".2"/><circle id="SvgjsCircle1032" cx="0" cy="0" r="0" fill="#06f" class="segment-value"/></g><g id="2" clip-path="url(&quot;#SvgjsClipPath1038&quot;)" data-data="{&quot;scrobbleCount&quot;:5,&quot;listeningClockTooltip&quot;:&quot;5 scrobbles&quot;}"><circle id="SvgjsCircle1036" cx="0" cy="0" r="120" fill="#06f" fill-opacity=".2"/><circle id="SvgjsCircle1037" cx="0" cy="0" r="0" fill="#06f" class="segment-value"/></g><g id="3" clip-path="url(&quot;#SvgjsClipPath1043&quot;)" data-data="{&quot;scrobbleCount&quot;:4,&quot;listeningClockTooltip&quot;:&quot;4 scrobbles&quot;}"><circle id="SvgjsCircle1041" cx="0" cy="0" r="120" fill="#06f" fill-opacity=".2"/><circle id="SvgjsCircle1042" cx="0" cy="0" r="0" fill="#06f" class="segment-value"/></g><g id="4" clip-path="url(&quot;#SvgjsClipPath1048&quot;)" data-data="{&quot;scrobbleCount&quot;:0,&quot;listeningClockTooltip&quot;:&quot;0 scrobbles&quot;}"><circle id="SvgjsCircle1046" cx="0" cy="0" r="120" fill="#06f" fill-opacity=".2"/><circle id="SvgjsCircle1047" cx="0" cy="0" r="0" fill="#06f" class="segment-value"/></g><g id="5" clip-path="url(&quot;#SvgjsClipPath1053&quot;)" data-data="{&quot;scrobbleCount&quot;:1,&quot;listeningClockTooltip&quot;:&quot;1 scrobble&quot;}"><circle id="SvgjsCircle1051" cx="0" cy="0" r="120" fill="#06f" fill-opacity=".2"/><circle id="SvgjsCircle1052" cx="0" cy="0" r="0" fill="#06f" class="segment-value"/></g><g id="6" clip-path="url(&quot;#SvgjsClipPath1058&quot;)" data-data="{&quot;scrobbleCount&quot;:0,&quot;listeningClockTooltip&quot;:&quot;0 scrobbles&quot;}"><circle id="SvgjsCircle1056" cx="0" cy="0" r="120" fill="#06f" fill-opacity=".2"/><circle id="SvgjsCircle1057" cx="0" cy="0" r="0" fill="#06f" class="segment-value"/></g><g id="7" clip-path="url(&quot;#SvgjsClipPath1063&quot;)" data-data="{&quot;scrobbleCount&quot;:0,&quot;listeningClockTooltip&quot;:&quot;0 scrobbles&quot;}"><circle id="SvgjsCircle1061" cx="0" cy="0" r="120" fill="#06f" fill-opacity=".2"/><circle id="SvgjsCircle1062" cx="0" cy="0" r="0" fill="#06f" class="segment-value"/></g><g id="8" clip-path="url(&quot;#SvgjsClipPath1068&quot;)" data-data="{&quot;scrobbleCount&quot;:0,&quot;listeningClockTooltip&quot;:&quot;0 scrobbles&quot;}"><circle id="SvgjsCircle1066" cx="0" cy="0" r="120" fill="#06f" fill-opacity=".2"/><circle id="SvgjsCircle1067" cx="0" cy="0" r="0" fill="#06f" class="segment-value"/></g><g id="9" clip-path="url(&quot;#SvgjsClipPath1073&quot;)" data-data="{&quot;scrobbleCount&quot;:0,&quot;listeningClockTooltip&quot;:&quot;0 scrobbles&quot;}"><circle id="SvgjsCircle1071" cx="0" cy="0" r="120" fill="#06f" fill-opacity=".2"/><circle id="SvgjsCircle1072" cx="0" cy="0" r="0" fill="#06f" class="segment-value"/></g><g id="10" clip-path="url(&quot;#SvgjsClipPath1078&quot;)" data-data="{&quot;scrobbleCount&quot;:3,&quot;listeningClockTooltip&quot;:&quot;3 scrobbles&quot;}"><circle id="SvgjsCircle1076" cx="0" cy="0" r="120" fill="#06f" fill-opacity=".2"/><circle id="SvgjsCircle1077" cx="0" cy="0" r="0" fill="#06f" class="segment-value"/></g><g id="11" clip-path="url(&quot;#SvgjsClipPath1083&quot;)" data-data="{&quot;scrobbleCount&quot;:27,&quot;listeningClockTooltip&quot;:&quot;27 scrobbles&quot;}"><circle id="SvgjsCircle1081" cx="0" cy="0" r="120" fill="#06f" fill-opacity=".2"/><circle id="SvgjsCircle1082" cx="0" cy="0" r="0" fill="#06f" class="segment-value"/></g><g id="12" clip-path="url(&quot;#SvgjsClipPath1088&quot;)" data-data="{&quot;scrobbleCount&quot;:34,&quot;listeningClockTooltip&quot;:&quot;34 scrobbles&quot;}"><circle id="SvgjsCircle1086" cx="0" cy="0" r="120" fill="#06f" fill-opacity=".2"/><circle id="SvgjsCircle1087" cx="0" cy="0" r="0" fill="#06f" class="segment-value"/></g><g id="13" clip-path="url(&quot;#SvgjsClipPath1093&quot;)" data-data="{&quot;scrobbleCount&quot;:51,&quot;listeningClockTooltip&quot;:&quot;51 scrobbles&quot;}"><circle id="SvgjsCircle1091" cx="0" cy="0" r="120" fill="#06f" fill-opacity=".2"/><circle id="SvgjsCircle1092" cx="0" cy="0" r="0" fill="#06f" class="segment-value"/></g><g id="14" clip-path="url(&quot;#SvgjsClipPath1098&quot;)" data-data="{&quot;scrobbleCount&quot;:48,&quot;listeningClockTooltip&quot;:&quot;48 scrobbles&quot;}"><circle id="SvgjsCircle1096" cx="0" cy="0" r="120" fill="#06f" fill-opacity=".2"/><circle id="SvgjsCircle1097" cx="0" cy="0" r="0" fill="#06f" class="segment-value"/></g><g id="15" clip-path="url(&quot;#SvgjsClipPath1103&quot;)" data-data="{&quot;scrobbleCount&quot;:48,&quot;listeningClockTooltip&quot;:&quot;48 scrobbles&quot;}"><circle id="SvgjsCircle1101" cx="0" cy="0" r="120" fill="#06f" fill-opacity=".2"/><circle id="SvgjsCircle1102" cx="0" cy="0" r="0" fill="#06f" class="segment-value"/></g><g id="16" clip-path="url(&quot;#SvgjsClipPath1108&quot;)" data-data="{&quot;scrobbleCount&quot;:18,&quot;listeningClockTooltip&quot;:&quot;18 scrobbles&quot;}"><circle id="SvgjsCircle1106" cx="0" cy="0" r="120" fill="#06f" fill-opacity=".2"/><circle id="SvgjsCircle1107" cx="0" cy="0" r="0" fill="#06f" class="segment-value"/></g><g id="17" clip-path="url(&quot;#SvgjsClipPath1113&quot;)" data-data="{&quot;scrobbleCount&quot;:16,&quot;listeningClockTooltip&quot;:&quot;16 scrobbles&quot;}"><circle id="SvgjsCircle1111" cx="0" cy="0" r="120" fill="#06f" fill-opacity=".2"/><circle id="SvgjsCircle1112" cx="0" cy="0" r="0" fill="#06f" class="segment-value"/></g><g id="18" clip-path="url(&quot;#SvgjsClipPath1118&quot;)" data-data="{&quot;scrobbleCount&quot;:18,&quot;listeningClockTooltip&quot;:&quot;18 scrobbles&quot;}"><circle id="SvgjsCircle1116" cx="0" cy="0" r="120" fill="#06f" fill-opacity=".2"/><circle id="SvgjsCircle1117" cx="0" cy="0" r="0" fill="#06f" class="segment-value"/></g><g id="19" clip-path="url(&quot;#SvgjsClipPath1123&quot;)" data-data="{&quot;scrobbleCount&quot;:14,&quot;listeningClockTooltip&quot;:&quot;14 scrobbles&quot;}"><circle id="SvgjsCircle1121" cx="0" cy="0" r="120" fill="#06f" fill-opacity=".2"/><circle id="SvgjsCircle1122" cx="0" cy="0" r="0" fill="#06f" class="segment-value"/></g><g id="20" clip-path="url(&quot;#SvgjsClipPath1128&quot;)" data-data="{&quot;scrobbleCount&quot;:9,&quot;listeningClockTooltip&quot;:&quot;9 scrobbles&quot;}"><circle id="SvgjsCircle1126" cx="0" cy="0" r="120" fill="#06f" fill-opacity=".2"/><circle id="SvgjsCircle1127" cx="0" cy="0" r="0" fill="#06f" class="segment-value"/></g><g id="21" clip-path="url(&quot;#SvgjsClipPath1133&quot;)" data-data="{&quot;scrobbleCount&quot;:1,&quot;listeningClockTooltip&quot;:&quot;1 scrobble&quot;}"><circle id="SvgjsCircle1131" cx="0" cy="0" r="120" fill="#06f" fill-opacity=".2"/><circle id="SvgjsCircle1132" cx="0" cy="0" r="0" fill="#06f" class="segment-value"/></g><g id="22" clip-path="url(&quot;#SvgjsClipPath1138&quot;)" data-data="{&quot;scrobbleCount&quot;:1,&quot;listeningClockTooltip&quot;:&quot;1 scrobble&quot;}"><circle id="SvgjsCircle1136" cx="0" cy="0" r="120" fill="#06f" fill-opacity=".2"/><circle id="SvgjsCircle1137" cx="0" cy="0" r="0" fill="#06f" class="segment-value"/></g><g id="23" clip-path="url(&quot;#SvgjsClipPath1143&quot;)" data-data="{&quot;scrobbleCount&quot;:1,&quot;listeningClockTooltip&quot;:&quot;1 scrobble&quot;}"><circle id="SvgjsCircle1141" cx="0" cy="0" r="120" fill="#06f" fill-opacity=".2"/><circle id="SvgjsCircle1142" cx="0" cy="0" r="0" fill="#06f" class="segment-value"/></g><g id="SvgjsG1144" stroke="#fff" stroke-width="2"><line id="SvgjsLine1145" x1="0" x2="130" y1="0" y2="0" style="pointer-events:none"/><line id="SvgjsLine1146" x1="0" x2="125.57" y1="0" y2="33.646" style="pointer-events:none"/><line id="SvgjsLine1147" x1="0" x2="112.583" y1="0" y2="65" style="pointer-events:none"/><line id="SvgjsLine1148" x1="0" x2="91.924" y1="0" y2="91.924" style="pointer-events:none"/><line id="SvgjsLine1149" x1="0" x2="65" y1="0" y2="112.583" style="pointer-events:none"/><line id="SvgjsLine1150" x1="0" x2="33.646" y1="0" y2="125.57" style="pointer-events:none"/><line id="SvgjsLine1151" x1="0" x2="0" y1="0" y2="130" style="pointer-events:none"/><line id="SvgjsLine1152" x1="0" x2="-33.646" y1="0" y2="125.57" style="pointer-events:none"/><line id="SvgjsLine1153" x1="0" x2="-65" y1="0" y2="112.583" style="pointer-events:none"/><line id="SvgjsLine1154" x1="0" x2="-91.924" y1="0" y2="91.924" style="pointer-events:none"/><line id="SvgjsLine1155" x1="0" x2="-112.583" y1="0" y2="65" style="pointer-events:none"/><line id="SvgjsLine1156" x1="0" x2="-125.57" y1="0" y2="33.646" style="pointer-events:none"/><line id="SvgjsLine1157" x1="0" x2="-130" y1="0" y2="0" style="pointer-events:none"/><line id="SvgjsLine1158" x1="0" x2="-125.57" y1="0" y2="-33.646" style="pointer-events:none"/><line id="SvgjsLine1159" x1="0" x2="-112.583" y1="0" y2="-65" style="pointer-events:none"/><line id="SvgjsLine1160" x1="0" x2="-91.924" y1="0" y2="-91.924" style="pointer-events:none"/><line id="SvgjsLine1161" x1="0" x2="-65" y1="0" y2="-112.583" style="pointer-events:none"/><line id="SvgjsLine1162" x1="0" x2="-33.646" y1="0" y2="-125.57" style="pointer-events:none"/><line id="SvgjsLine1163" x1="0" x2="0" y1="0" y2="-130" style="pointer-events:none"/><line id="SvgjsLine1164" x1="0" x2="33.646" y1="0" y2="-125.57" style="pointer-events:none"/><line id="SvgjsLine1165" x1="0" x2="65" y1="0" y2="-112.583" style="pointer-events:none"/><line id="SvgjsLine1166" x1="0" x2="91.924" y1="0" y2="-91.924" style="pointer-events:none"/><line id="SvgjsLine1167" x1="0" x2="112.583" y1="0" y2="-65" style="pointer-events:none"/><line id="SvgjsLine1168" x1="0" x2="125.57" y1="0" y2="-33.646" style="pointer-events:none"/></g><circle id="SvgjsCircle1169" cx="0" cy="0" r="56" fill="#fff"/><g id="SvgjsG1170" clip-path="url(&quot;#SvgjsClipPath1173&quot;)"><polygon id="SvgjsPolygon1171" fill="none" stroke="#1a1a1a" stroke-linejoin="round" stroke-width="2" points="0 0"/></g><g id="SvgjsG1174" stroke="#c2c2c2" stroke-width="1"><line id="SvgjsLine1175" x1="49" x2="53" y1="0" y2="0" style="pointer-events:none"/><line id="SvgjsLine1176" x1="47.33" x2="51.194" y1="12.682" y2="13.717" style="pointer-events:none"/><line id="SvgjsLine1177" x1="42.435" x2="45.899" y1="24.5" y2="26.5" style="pointer-events:none"/><line id="SvgjsLine1178" x1="34.648" x2="37.477" y1="34.648" y2="37.477" style="pointer-events:none"/><line id="SvgjsLine1179" x1="24.5" x2="26.5" y1="42.435" y2="45.899" style="pointer-events:none"/><line id="SvgjsLine1180" x1="12.682" x2="13.717" y1="47.33" y2="51.194" style="pointer-events:none"/><line id="SvgjsLine1181" x1="0" x2="0" y1="49" y2="53" style="pointer-events:none"/><line id="SvgjsLine1182" x1="-12.682" x2="-13.717" y1="47.33" y2="51.194" style="pointer-events:none"/><line id="SvgjsLine1183" x1="-24.5" x2="-26.5" y1="42.435" y2="45.899" style="pointer-events:none"/><line id="SvgjsLine1184" x1="-34.648" x2="-37.477" y1="34.648" y2="37.477" style="pointer-events:none"/><line id="SvgjsLine1185" x1="-42.435" x2="-45.899" y1="24.5" y2="26.5" style="pointer-events:none"/><line id="SvgjsLine1186" x1="-47.33" x2="-51.194" y1="12.682" y2="13.717" style="pointer-events:none"/><line id="SvgjsLine1187" x1="-49" x2="-53" y1="0" y2="0" style="pointer-events:none"/><line id="SvgjsLine1188" x1="-47.33" x2="-51.194" y1="-12.682" y2="-13.717" style="pointer-events:none"/><line id="SvgjsLine1189" x1="-42.435" x2="-45.899" y1="-24.5" y2="-26.5" style="pointer-events:none"/><line id="SvgjsLine1190" x1="-34.648" x2="-37.477" y1="-34.648" y2="-37.477" style="pointer-events:none"/><line id="SvgjsLine1191" x1="-24.5" x2="-26.5" y1="-42.435" y2="-45.899" style="pointer-events:none"/><line id="SvgjsLine1192" x1="-12.682" x2="-13.717" y1="-47.33" y2="-51.194" style="pointer-events:none"/><line id="SvgjsLine1193" x1="0" x2="0" y1="-49" y2="-53" style="pointer-events:none"/><line id="SvgjsLine1194" x1="12.682" x2="13.717" y1="-47.33" y2="-51.194" style="pointer-events:none"/><line id="SvgjsLine1195" x1="24.5" x2="26.5" y1="-42.435" y2="-45.899" style="pointer-events:none"/><line id="SvgjsLine1196" x1="34.648" x2="37.477" y1="-34.648" y2="-37.477" style="pointer-events:none"/><line id="SvgjsLine1197" x1="42.435" x2="45.899" y1="-24.5" y2="-26.5" style="pointer-events:none"/><line id="SvgjsLine1198" x1="47.33" x2="51.194" y1="-12.682" y2="-13.717" style="pointer-events:none"/></g><text id="SvgjsText1199" x="-7.992" y="-32.57" fill="#1a1a1a" font-family="&quot;Open Sans&quot;, &quot;Lucida Grande&quot;, &quot;Helvetica Neue&quot;, Helvetica, Arial, sans-serif" font-size="14" font-weight="bold">00</text><text id="SvgjsText1200" x="30.008" y="5.43" fill="#1a1a1a" font-family="&quot;Open Sans&quot;, &quot;Lucida Grande&quot;, &quot;Helvetica Neue&quot;, Helvetica, Arial, sans-serif" font-size="14" font-weight="bold">06</text><text id="SvgjsText1201" x="-7.992" y="43.43" fill="#1a1a1a" font-family="&quot;Open Sans&quot;, &quot;Lucida Grande&quot;, &quot;Helvetica Neue&quot;, Helvetica, Arial, sans-serif" font-size="14" font-weight="bold">12</text><text id="SvgjsText1202" x="-45.992" y="5.43" fill="#1a1a1a" font-family="&quot;Open Sans&quot;, &quot;Lucida Grande&quot;, &quot;Helvetica Neue&quot;, Helvetica, Arial, sans-serif" font-size="14" font-weight="bold">18</text><svg id="SvgjsSvg1203" width="40" height="40" x="-20" y="-20" style="overflow:visible"><svg xmlns="http://www.w3.org/2000/svg" id="Layer_1" viewBox="0 0 32 32"><style>.st0{fill:#06f}</style><g id="XMLID_2_"><path id="XMLID_4_" d="M16 0C7.2 0 0 7.2 0 16s7.2 16 16 16 16-7.2 16-16S24.8 0 16 0zm0 30C8.3 30 2 23.7 2 16S8.3 2 16 2s14 6.3 14 14-6.3 14-14 14z" class="st0"/><path id="XMLID_3_" d="M17 15.6V6c0-.6-.4-1-1-1s-1 .4-1 1v10c0 .1 0 .3.1.4.1.1.1.2.2.3l6 6c.2.2.5.3.7.3s.5-.1.7-.3c.4-.4.4-1 0-1.4L17 15.6z" class="st0"/></g></svg></svg></g><text id="lpm" x="20" y="250" fill="#1a1a1a" font-family="&quot;Courier&quot;" font-size="12" font-weight="bold">10-10-1998 to 10-10-1998</text></svg>